<?xml version="1.0" encoding="utf-8"?>
<!-- Generator: Adobe Illustrator 24.0.0, SVG Export Plug-In . SVG Version: 6.00 Build 0)  -->
<svg version="1.1" id="Calque_1" xmlns="http://www.w3.org/2000/svg" xmlns:xlink="http://www.w3.org/1999/xlink" x="0px" y="0px"
	 viewBox="0 0 1417.32 1417.32" style="enable-background:new 0 0 1417.32 1417.32;" xml:space="preserve">
<style type="text/css">
	.st0{fill:url(#SVGID_1_);}
	.st1{fill:#1F3D86;}
</style>
<linearGradient id="SVGID_1_" gradientUnits="userSpaceOnUse" x1="199.8624" y1="826.1484" x2="462.4028" y2="826.1484" gradientTransform="matrix(-0.4853 -1.3792 -1.5508 0.5457 1862.6824 517.5425)">
	<stop  offset="0" style="stop-color:#F4F8FA"/>
	<stop  offset="1" style="stop-color:#EAEFF4"/>
</linearGradient>
<path class="st0" d="M231.54,528.48l63.97-153.02c15.21-36.51,62.61-52.88,96.97-33.5L597.1,456.89
	c33.04,18.6,37.87,61.07,10.15,89.27L462.77,692.79c-25.31,25.65-67.51,28.56-93.13,6.27l-124.07-108.4
	C227.72,575.08,222.31,550.79,231.54,528.48z"/>
<path class="st1" d="M875.96,737.39l-365.38-75.85c-50-10.38-76.6-65.23-53.74-110.92l86.74-173.81
	c19.81-39.76,68.87-54.8,107.58-33.13l322.41,180.72c38.96,21.86,51.57,71.89,27.59,109.62l-43.86,68.91
	C940.08,730.26,907.63,743.93,875.96,737.39z"/>
</svg>
