<svg xmlns="http://www.w3.org/2000/svg" viewBox="0 0 500 372.61"><title>404</title><g id="Background_Complete" data-name="Background Complete"><rect y="327.45" width="500" height="0.25" style="fill:#ebebeb"/><path d="M237,337.8H43.91a5.71,5.71,0,0,1-5.7-5.71V60.66A5.71,5.71,0,0,1,43.91,55H237a5.71,5.71,0,0,1,5.71,5.71V332.09A5.71,5.71,0,0,1,237,337.8ZM43.91,55.2a5.46,5.46,0,0,0-5.45,5.46V332.09a5.46,5.46,0,0,0,5.45,5.46H237a5.47,5.47,0,0,0,5.46-5.46V60.66A5.47,5.47,0,0,0,237,55.2Z" transform="translate(0 -54.95)" style="fill:#ebebeb"/><path d="M453.31,337.8H260.21a5.72,5.72,0,0,1-5.71-5.71V60.66A5.72,5.72,0,0,1,260.21,55h193.1A5.71,5.71,0,0,1,459,60.66V332.09A5.71,5.71,0,0,1,453.31,337.8ZM260.21,55.2a5.47,5.47,0,0,0-5.46,5.46V332.09a5.47,5.47,0,0,0,5.46,5.46h193.1a5.47,5.47,0,0,0,5.46-5.46V60.66a5.47,5.47,0,0,0-5.46-5.46Z" transform="translate(0 -54.95)" style="fill:#ebebeb"/><rect x="51.28" y="336.97" width="26" height="0.25" style="fill:#ebebeb"/><rect x="145.15" y="334.26" width="45.03" height="0.25" style="fill:#ebebeb"/><rect x="78.28" y="346.26" width="60.79" height="0.25" style="fill:#ebebeb"/><rect x="429.49" y="344.58" width="19.23" height="0.25" style="fill:#ebebeb"/><rect x="365.29" y="344.58" width="55.29" height="0.25" style="fill:#ebebeb"/><rect x="257.05" y="340.35" width="74.47" height="0.25" style="fill:#ebebeb"/><path d="M190.83,215.44l-12.65,167h122l12.65-167Zm76.71,118A27.06,27.06,0,0,1,241,358.11a22.54,22.54,0,0,1-22.79-24.66l4.45-58.7a27.06,27.06,0,0,1,26.53-24.67A22.55,22.55,0,0,1,272,274.75Z" transform="translate(0 -54.95)" style="fill:#e6e6e6"/><polygon points="338.88 327.45 161 327.45 162.03 316.49 339.9 316.49 338.88 327.45" style="fill:#e6e6e6"/><path d="M407.22,320.41H423a1.55,1.55,0,0,0,1.55-1.64l-.06-1.12a1.73,1.73,0,0,0-1.71-1.63H407a1.55,1.55,0,0,0-1.56,1.63l.06,1.12A1.74,1.74,0,0,0,407.22,320.41Z" transform="translate(0 -54.95)" style="fill:#e0e0e0"/><path d="M380.89,320.41h15.75a1.54,1.54,0,0,0,1.55-1.64l-.06-1.12a1.73,1.73,0,0,0-1.71-1.63H380.67a1.55,1.55,0,0,0-1.56,1.63l.06,1.12A1.75,1.75,0,0,0,380.89,320.41Z" transform="translate(0 -54.95)" style="fill:#e0e0e0"/><path d="M435.23,319.17H67.6a8.16,8.16,0,0,1-8.06-7.68L48.47,90.67A7.22,7.22,0,0,1,55.76,83H423.39a8.15,8.15,0,0,1,8.06,7.67l11.07,220.82A7.23,7.23,0,0,1,435.23,319.17Z" transform="translate(0 -54.95)" style="fill:#e0e0e0"/><path d="M439.73,319.17H72.11A8.18,8.18,0,0,1,64,311.49L53,90.67A7.22,7.22,0,0,1,60.27,83H427.89A8.17,8.17,0,0,1,436,90.67L447,311.49A7.23,7.23,0,0,1,439.73,319.17Z" transform="translate(0 -54.95)" style="fill:#e6e6e6"/><path d="M74.26,303.76,64,98.41a4.54,4.54,0,0,1,4.57-4.81H420.69a5.1,5.1,0,0,1,5.05,4.81L436,303.76a4.53,4.53,0,0,1-4.56,4.81H79.31A5.11,5.11,0,0,1,74.26,303.76Z" transform="translate(0 -54.95)" style="fill:#f5f5f5"/><path d="M85.66,104.1a4,4,0,0,1-4,4.26,4.53,4.53,0,0,1-4.47-4.26,4,4,0,0,1,4-4.25A4.51,4.51,0,0,1,85.66,104.1Z" transform="translate(0 -54.95)" style="fill:#fff"/><path d="M104.93,104.1a4,4,0,0,1-4,4.26,4.53,4.53,0,0,1-4.47-4.26,4,4,0,0,1,4-4.25A4.51,4.51,0,0,1,104.93,104.1Z" transform="translate(0 -54.95)" style="fill:#fff"/><path d="M124.21,104.1a4,4,0,0,1-4,4.26,4.51,4.51,0,0,1-4.46-4.26,4,4,0,0,1,4-4.25A4.52,4.52,0,0,1,124.21,104.1Z" transform="translate(0 -54.95)" style="fill:#fff"/><g style="opacity:0.6000000000000001"><polygon points="110.88 253.62 161.63 253.62 208.03 38.64 157.28 38.64 110.88 253.62" style="fill:#fff"/><polygon points="329.28 253.62 342.13 253.62 388.53 38.64 375.68 38.64 329.28 253.62" style="fill:#fff"/><polygon points="172.91 253.62 244.91 253.62 291.31 38.64 219.31 38.64 172.91 253.62" style="fill:#fff"/></g></g><g id="Shadow"><ellipse id="_Path_" data-name="&lt;Path&gt;" cx="250" cy="361.29" rx="193.89" ry="11.32" style="fill:#f5f5f5"/></g><g id="Character"><path d="M360.6,263.05h-.36c-26.64-2.18-45-25-45.74-25.92a4.47,4.47,0,0,1,7-5.55c.21.27,15.9,19.61,37.63,22.37,7-7,13-25.48,12.33-31.07,0-.06,0-.11,0-.16-.14-1.8-.48-8,1.29-11.65a4.47,4.47,0,0,1,8,3.88c-.44.92-.65,4.23-.44,7,1,9.2-7,32.42-17,40.19A4.47,4.47,0,0,1,360.6,263.05Z" transform="translate(0 -54.95)" style="fill:#263238"/><path d="M148.82,238.82a65.8,65.8,0,0,1-48.56-22.28,4.46,4.46,0,0,1-.26-5.64c7.22-9.71,20-32.64,22-40.11a10.91,10.91,0,0,0-4.14-4.33,4.45,4.45,0,0,1-2.55-3.61l-.72-7.32a4.47,4.47,0,0,1,8.89-.88l.5,5.09a22.34,22.34,0,0,1,6.81,8.65,4.48,4.48,0,0,1,.32,2.26c-.92,7.93-13.79,30.9-21.71,42.51,18.49,18.43,40.59,16.75,41.56,16.66a4.47,4.47,0,0,1,.82,8.9C151.52,238.74,150.49,238.82,148.82,238.82Z" transform="translate(0 -54.95)" style="fill:#263238"/><path d="M292.87,416.09h-12a4.47,4.47,0,0,1-4.31-5.66c3.13-11.24,4.67-20.39,5.82-34.71-4.24-20-8.23-38.21-8.27-38.39a4.47,4.47,0,0,1,8.73-1.91c0,.18,4.12,18.86,8.41,39.08a4.23,4.23,0,0,1,.08,1.28c-1,12.86-2.31,21.75-4.67,31.38h6.18a4.47,4.47,0,0,1,0,8.93Z" transform="translate(0 -54.95)" style="fill:#263238"/><path d="M200.32,416.09h-6.76a4.45,4.45,0,0,1-4.42-5.08c1.15-8.2,7-23.13,13.3-38.14,2.23-19.8,4.05-36.8,4.07-37a4.47,4.47,0,1,1,8.88,1c0,.17-1.88,17.56-4.15,37.65a4.31,4.31,0,0,1-.32,1.22c-4.43,10.63-9.49,23.15-11.8,31.44h1.2a4.47,4.47,0,1,1,0,8.93Z" transform="translate(0 -54.95)" style="fill:#263238"/><path d="M204.21,111l-52.06,52.07c-2.62,57.71-2.41,118.33,0,181.18H324.31c-3.41-81.1-3.73-159.17,0-233.25Z" transform="translate(0 -54.95)" style="fill:#fff"/><path d="M324.31,345.13H152.15a.9.9,0,0,1-.9-.86C148.76,279,148.76,218,151.25,163a.9.9,0,0,1,.27-.59l52.06-52.07a.89.89,0,0,1,.63-.26h120.1a.9.9,0,0,1,.65.28.87.87,0,0,1,.24.66c-3.59,71.34-3.59,147.61,0,233.17a.89.89,0,0,1-.25.65A.86.86,0,0,1,324.31,345.13ZM153,343.34H323.38c-3.54-84.86-3.55-160.59,0-231.47H204.58L153,163.43C150.55,218.07,150.55,278.59,153,343.34Z" transform="translate(0 -54.95)" style="fill:#263238"/><path d="M293.44,319.46H274.66a.67.67,0,0,1-.67-.67.66.66,0,0,1,.67-.66h18.78a.66.66,0,0,1,.67.66A.67.67,0,0,1,293.44,319.46Z" transform="translate(0 -54.95)" style="fill:#407bff"/><path d="M266.88,319.46H183a.67.67,0,0,1-.67-.67.66.66,0,0,1,.67-.66h83.86a.66.66,0,0,1,.67.66A.67.67,0,0,1,266.88,319.46Z" transform="translate(0 -54.95)" style="fill:#407bff"/><path d="M214.28,219.19c-.2-4.36-2.67-7.8-5.53-7.7s-5,3.71-4.82,8.07,2.67,7.8,5.53,7.69S214.48,223.54,214.28,219.19Z" transform="translate(0 -54.95)" style="fill:#407bff"/><path d="M274.65,217.82c-.2-4.35-2.67-7.79-5.53-7.69s-5,3.71-4.82,8.07,2.68,7.8,5.53,7.69S274.85,222.18,274.65,217.82Z" transform="translate(0 -54.95)" style="fill:#407bff"/><path d="M229.35,237a36.55,36.55,0,0,1,28.63,1.3,1.27,1.27,0,0,1,.49,1.74,1.3,1.3,0,0,1-1.75.49c-.15-.08-14.4-7.76-31.41,1a1.31,1.31,0,0,1-1.74-.54,1.27,1.27,0,0,1,.55-1.72A41.73,41.73,0,0,1,229.35,237Z" transform="translate(0 -54.95)" style="fill:#407bff"/><path d="M205.64,178.34a2.64,2.64,0,0,1,1.26.36,2.58,2.58,0,0,1,.92,3.51A25.29,25.29,0,0,1,188.27,195a2.59,2.59,0,0,1-2.69-2.45,2.55,2.55,0,0,1,2.44-2.66h0c.39,0,9.62-.58,15.36-10.27A2.52,2.52,0,0,1,205.64,178.34Z" transform="translate(0 -54.95)" style="fill:#407bff"/><path d="M266.05,176.87a2.57,2.57,0,0,1,2.33.72c8,8,17.14,6.39,17.52,6.32a2.6,2.6,0,0,1,3,2,2.54,2.54,0,0,1-2,3c-.5.09-12.14,2.31-22.21-7.75a2.54,2.54,0,0,1,1.31-4.3Z" transform="translate(0 -54.95)" style="fill:#407bff"/><path d="M321.72,204.86l-7.31.68a5.22,5.22,0,0,1-5.58-4.06L298.7,156.1a5.22,5.22,0,0,1,3.77-6.18l19.59-5.14Z" transform="translate(0 -54.95)" style="opacity:0.2"/><path d="M209,167.69c-5.09-13.89-10.18-36.12-4.81-56.71l-52.06,52.07C166.86,168,190.32,170.11,209,167.69Z" transform="translate(0 -54.95)" style="opacity:0.2"/><path d="M204.21,163.05c-5.71-16.86-3.38-39.78,0-52.07l-52.06,52.07C167.91,165.92,185.52,165.46,204.21,163.05Z" transform="translate(0 -54.95)" style="fill:#fff"/><path d="M176,165.92a133.14,133.14,0,0,1-24-2,.88.88,0,0,1-.47-1.5l52.06-52.07a.89.89,0,0,1,1.49.87c-3.14,11.44-5.75,34.6,0,51.54a.93.93,0,0,1-.09.76.87.87,0,0,1-.64.41A221.85,221.85,0,0,1,176,165.92Zm-22-3.46c13.84,2.29,29.91,2.24,49-.16-4.71-14.94-3.64-34.71-.48-48.4Z" transform="translate(0 -54.95)" style="fill:#263238"/><path d="M383.1,239.11a1.49,1.49,0,0,1-1.44-1.11l-18.34-69.88a1.49,1.49,0,0,1,2.89-.76l18.34,69.88a1.49,1.49,0,0,1-1.07,1.82A1.2,1.2,0,0,1,383.1,239.11Z" transform="translate(0 -54.95)" style="fill:#263238"/><rect x="416.35" y="136.8" width="1" height="5.51" transform="matrix(0.97, -0.25, 0.25, 0.97, -21.77, 55.42)" style="fill:#407bff"/><path d="M414.11,131.09l-3.85-14.67a7.76,7.76,0,0,0-9.46-5.53l-10.07,2.64-.25-1,10.07-2.65a8.76,8.76,0,0,1,10.67,6.24l3.86,14.68Z" transform="translate(0 -54.95)" style="fill:#407bff"/><rect x="306.61" y="124.87" width="109.05" height="58.03" rx="5.24" transform="translate(-27.23 41.75) rotate(-14.7)" style="fill:#407bff"/><rect x="333.5" y="174.37" width="72.67" height="25.34" rx="5.24" transform="translate(-35.36 45.04) rotate(-14.7)" style="fill:#407bff"/><path d="M342.15,187.94l8.23-2.14.55,2.12-5.15,1.34.41,1.58L351,189.6l.53,2-4.78,1.25.51,1.95,5.3-1.37.58,2.25-8.37,2.18Z" transform="translate(0 -54.95)" style="fill:#fff"/><path d="M354.81,195.26l-2.59-9.94,5.12-1.33a7.66,7.66,0,0,1,2.24-.32,2.39,2.39,0,0,1,1.45.59,3.15,3.15,0,0,1,.9,3,2.75,2.75,0,0,1-.72,1.23,3.69,3.69,0,0,1-1,.67,2.09,2.09,0,0,1,1.52.56,5,5,0,0,1,.6.5l2.23,2.49-3.47.91L358.68,191a2.32,2.32,0,0,0-.75-.62,1.35,1.35,0,0,0-.82,0l-.27.07,1.05,4Zm1.54-6.72,1.3-.33a4.8,4.8,0,0,0,.78-.35.8.8,0,0,0,.41-.44,1,1,0,0,0-.45-1.29,2,2,0,0,0-1.21,0l-1.35.35Z" transform="translate(0 -54.95)" style="fill:#fff"/><path d="M365.6,192.45,363,182.51l5.12-1.33a8,8,0,0,1,2.24-.32,2.37,2.37,0,0,1,1.44.59,2.76,2.76,0,0,1,.88,1.49,2.81,2.81,0,0,1,0,1.52,2.85,2.85,0,0,1-.71,1.22,4.14,4.14,0,0,1-1,.68,2.89,2.89,0,0,1,.89.15,3.47,3.47,0,0,1,.63.4,4.68,4.68,0,0,1,.59.5l2.24,2.5-3.47.9-2.43-2.61a2.24,2.24,0,0,0-.76-.62,1.32,1.32,0,0,0-.81,0l-.27.07,1.05,4Zm1.55-6.71,1.3-.34a5.28,5.28,0,0,0,.77-.35.79.79,0,0,0,.42-.44,1,1,0,0,0-.45-1.28,1.89,1.89,0,0,0-1.22,0l-1.34.35Z" transform="translate(0 -54.95)" style="fill:#fff"/><path d="M374.45,184.85a4.86,4.86,0,0,1,3.79-6.48,5.4,5.4,0,0,1,4.17.34,5.23,5.23,0,0,1,2.31,3.38,6.45,6.45,0,0,1,.16,3,4.29,4.29,0,0,1-1.25,2.18,5.82,5.82,0,0,1-2.6,1.34,6.51,6.51,0,0,1-2.92.18,4.3,4.3,0,0,1-2.23-1.22A5.92,5.92,0,0,1,374.45,184.85Zm3.07-.78a3.4,3.4,0,0,0,1.12,2,2.18,2.18,0,0,0,3.06-.78,3.79,3.79,0,0,0-.06-2.45,3.15,3.15,0,0,0-1.1-1.9,2,2,0,0,0-1.7-.25,1.92,1.92,0,0,0-1.32,1.05A3.47,3.47,0,0,0,377.52,184.07Z" transform="translate(0 -54.95)" style="fill:#fff"/><path d="M387.73,186.69l-2.59-9.93,5.12-1.33a7.29,7.29,0,0,1,2.24-.32,2.36,2.36,0,0,1,1.45.59,3.11,3.11,0,0,1,.89,3,2.88,2.88,0,0,1-.71,1.23,3.69,3.69,0,0,1-1,.67,3.24,3.24,0,0,1,.9.16,3.08,3.08,0,0,1,.62.39,4,4,0,0,1,.59.51l2.24,2.49-3.47.91-2.43-2.61a2.43,2.43,0,0,0-.76-.63,1.39,1.39,0,0,0-.81,0l-.27.07,1.05,4Zm1.54-6.71,1.3-.33a5.94,5.94,0,0,0,.78-.35.84.84,0,0,0,.41-.44,1,1,0,0,0-.45-1.29,1.93,1.93,0,0,0-1.21,0l-1.35.35Z" transform="translate(0 -54.95)" style="fill:#fff"/><path d="M316.71,176.06l-1.41-5.63,8.53-25.82,4.86-1.23,2,7.81-2.87.72-5.37,16.34.07.27,20.08-5.06L344,169.2Zm17.75,1.87-1.93-7.67-.49-2.53-6-23.69,6.71-1.69,8.51,33.86Z" transform="translate(0 -54.95)" style="fill:#fff"/><path d="M363.74,171.36a13.21,13.21,0,0,1-7.86-.26,13.57,13.57,0,0,1-6.23-4.85,29.09,29.09,0,0,1-4.75-18.95,13.33,13.33,0,0,1,24.07-6,24.75,24.75,0,0,1,4,9,25.65,25.65,0,0,1,.75,9.93,13.62,13.62,0,0,1-3.19,7.22A13.16,13.16,0,0,1,363.74,171.36Zm-1.49-5.94a5.4,5.4,0,0,0,3.91-4.09q1-3.36-.49-9.21a23.21,23.21,0,0,0-2.4-6.22,8.55,8.55,0,0,0-3.18-3.29,5,5,0,0,0-3.69-.45,5.4,5.4,0,0,0-3.9,4.06q-1,3.33.42,9.1a24.12,24.12,0,0,0,2.42,6.31,8.63,8.63,0,0,0,3.21,3.34A5,5,0,0,0,362.25,165.42Z" transform="translate(0 -54.95)" style="fill:#fff"/><path d="M380.31,160.07l-1.42-5.64,8.53-25.82,4.86-1.22,2,7.8-2.88.73L386,152.26l.07.26,20.09-5.05,1.44,5.74Zm17.74,1.87-1.93-7.67-.49-2.53-6-23.69,6.71-1.69,8.52,33.85Z" transform="translate(0 -54.95)" style="fill:#fff"/><path d="M217.76,296h-3.14V285.82h3.28a5,5,0,0,1,2.54.61,4,4,0,0,1,1.61,1.74,6,6,0,0,1,.57,2.72,6.12,6.12,0,0,1-.57,2.74,4.07,4.07,0,0,1-1.65,1.76A5.37,5.37,0,0,1,217.76,296Zm-1.9-1.09h1.82a4.16,4.16,0,0,0,2.1-.49A3.11,3.11,0,0,0,221,293a5.9,5.9,0,0,0,0-4.27,3,3,0,0,0-1.2-1.37,3.85,3.85,0,0,0-2-.48h-2Z" transform="translate(0 -54.95)"/><path d="M227.73,296.16a3.51,3.51,0,0,1-1.9-.49,3.15,3.15,0,0,1-1.23-1.37,4.63,4.63,0,0,1-.43-2.06,4.7,4.7,0,0,1,.43-2.07,3.36,3.36,0,0,1,1.2-1.4,3.22,3.22,0,0,1,1.81-.51,3.7,3.7,0,0,1,1.18.2,3.1,3.1,0,0,1,1.06.65,3.21,3.21,0,0,1,.76,1.17,5.23,5.23,0,0,1,.28,1.8v.5H225v-1h4.7a2.54,2.54,0,0,0-.26-1.16,1.94,1.94,0,0,0-.73-.8,2.07,2.07,0,0,0-1.1-.29,2.1,2.1,0,0,0-1.21.34,2.37,2.37,0,0,0-.79.9,2.65,2.65,0,0,0-.27,1.18v.68a3.19,3.19,0,0,0,.3,1.46,2.07,2.07,0,0,0,.84.91,2.42,2.42,0,0,0,1.25.32,2.51,2.51,0,0,0,.84-.14,1.67,1.67,0,0,0,.64-.39,1.72,1.72,0,0,0,.43-.67l1.13.32a2.54,2.54,0,0,1-.6,1,2.85,2.85,0,0,1-1,.68A3.82,3.82,0,0,1,227.73,296.16Zm-.72-8.83,1.21-2.31h1.38l-1.55,2.31Z" transform="translate(0 -54.95)"/><path d="M238.09,290.07l-1.06.3a1.89,1.89,0,0,0-.29-.51,1.38,1.38,0,0,0-.52-.42,1.85,1.85,0,0,0-.84-.16,2,2,0,0,0-1.16.32,1,1,0,0,0-.47.81.85.85,0,0,0,.32.69,2.7,2.7,0,0,0,1,.43l1.13.27a3.23,3.23,0,0,1,1.53.76,1.81,1.81,0,0,1,.5,1.31,2,2,0,0,1-.38,1.18,2.59,2.59,0,0,1-1,.81,3.82,3.82,0,0,1-1.57.3,3.42,3.42,0,0,1-1.93-.51,2.27,2.27,0,0,1-1-1.48l1.11-.28a1.58,1.58,0,0,0,.61.93,2,2,0,0,0,1.16.31,2.14,2.14,0,0,0,1.31-.36,1,1,0,0,0,.48-.84.92.92,0,0,0-.27-.67,1.82,1.82,0,0,0-.86-.4l-1.27-.3a3.05,3.05,0,0,1-1.54-.77,2,2,0,0,1-.12-2.46,2.43,2.43,0,0,1,1-.78,3.53,3.53,0,0,1,1.44-.29,2.91,2.91,0,0,1,1.79.5A2.69,2.69,0,0,1,238.09,290.07Z" transform="translate(0 -54.95)"/><path d="M243.1,296.16a3.29,3.29,0,0,1-1.81-.49,3.35,3.35,0,0,1-1.22-1.38,5.22,5.22,0,0,1,0-4.15,3.23,3.23,0,0,1,1.22-1.38,3.53,3.53,0,0,1,3.62,0,3.21,3.21,0,0,1,1.21,1.38,5.11,5.11,0,0,1,0,4.15,3.21,3.21,0,0,1-3,1.87Zm0-1.05a2,2,0,0,0,1.29-.41,2.34,2.34,0,0,0,.75-1.06,3.85,3.85,0,0,0,.25-1.42,4,4,0,0,0-.25-1.43,2.34,2.34,0,0,0-.75-1.06,2.23,2.23,0,0,0-2.58,0,2.34,2.34,0,0,0-.75,1.06,4,4,0,0,0-.25,1.43,3.85,3.85,0,0,0,.25,1.42,2.34,2.34,0,0,0,.75,1.06A2,2,0,0,0,243.1,295.11Z" transform="translate(0 -54.95)"/><path d="M249.52,285.82V296h-1.17V285.82Z" transform="translate(0 -54.95)"/><path d="M254.87,296.16a3.54,3.54,0,0,1-1.9-.49,3.27,3.27,0,0,1-1.23-1.37,4.77,4.77,0,0,1-.43-2.06,4.84,4.84,0,0,1,.43-2.07,3.38,3.38,0,0,1,1.21-1.4,3.17,3.17,0,0,1,1.8-.51,3.7,3.7,0,0,1,1.18.2,3,3,0,0,1,1.06.65,3.09,3.09,0,0,1,.76,1.17,5,5,0,0,1,.28,1.8v.5h-5.88v-1h4.69a2.42,2.42,0,0,0-.26-1.16,2,2,0,0,0-.72-.8,2.08,2.08,0,0,0-1.11-.29,2.12,2.12,0,0,0-1.21.34,2.26,2.26,0,0,0-.78.9,2.65,2.65,0,0,0-.27,1.18v.68a3.19,3.19,0,0,0,.3,1.46,2.1,2.1,0,0,0,.83.91,2.6,2.6,0,0,0,2.09.18,1.71,1.71,0,0,0,.65-.39,1.82,1.82,0,0,0,.42-.67l1.13.32a2.43,2.43,0,0,1-.6,1,2.89,2.89,0,0,1-1,.68A3.88,3.88,0,0,1,254.87,296.16Zm-.71-8.83,1.21-2.31h1.37l-1.55,2.31Z" transform="translate(0 -54.95)"/><path d="M261.57,294.61l-.08.53a10.6,10.6,0,0,1-.25,1.22c-.12.43-.23.83-.36,1.22s-.22.68-.3.91h-.9c.05-.22.1-.5.17-.84s.14-.74.21-1.17.14-.87.18-1.31l.06-.56Z" transform="translate(0 -54.95)"/><path d="M170.22,305.8H169a2.5,2.5,0,0,0-.38-.93,2.7,2.7,0,0,0-1.51-1.1,3.45,3.45,0,0,0-1-.14,3.09,3.09,0,0,0-1.67.47,3.18,3.18,0,0,0-1.19,1.38,5.87,5.87,0,0,0,0,4.46,3.18,3.18,0,0,0,1.19,1.38,3.09,3.09,0,0,0,1.67.47,3.45,3.45,0,0,0,1-.14,2.87,2.87,0,0,0,.86-.42,2.64,2.64,0,0,0,.65-.68,2.57,2.57,0,0,0,.38-.93h1.24a4.34,4.34,0,0,1-.51,1.39,3.73,3.73,0,0,1-.92,1.05,3.68,3.68,0,0,1-1.22.65,4.59,4.59,0,0,1-1.45.23,4.2,4.2,0,0,1-3.91-2.45,7,7,0,0,1,0-5.57,4.3,4.3,0,0,1,1.59-1.8,4.24,4.24,0,0,1,2.32-.64,4.59,4.59,0,0,1,1.45.22,3.9,3.9,0,0,1,1.22.66,3.68,3.68,0,0,1,.92,1A4.4,4.4,0,0,1,170.22,305.8Z" transform="translate(0 -54.95)"/><path d="M175.25,313a3.51,3.51,0,0,1-1.9-.49,3.15,3.15,0,0,1-1.23-1.37,4.63,4.63,0,0,1-.43-2.06,4.7,4.7,0,0,1,.43-2.07,3.36,3.36,0,0,1,1.2-1.4,3.22,3.22,0,0,1,1.81-.51,3.7,3.7,0,0,1,1.18.2,3.1,3.1,0,0,1,1.06.65,3.21,3.21,0,0,1,.76,1.17,5.23,5.23,0,0,1,.28,1.8v.5h-5.89v-1h4.7a2.54,2.54,0,0,0-.26-1.16,1.94,1.94,0,0,0-.73-.8,2.07,2.07,0,0,0-1.1-.29,2.1,2.1,0,0,0-1.21.34,2.37,2.37,0,0,0-.79.9,2.65,2.65,0,0,0-.27,1.18v.68a3.19,3.19,0,0,0,.3,1.46,2.07,2.07,0,0,0,.84.91,2.57,2.57,0,0,0,2.08.18,1.64,1.64,0,0,0,.65-.39,1.72,1.72,0,0,0,.43-.67l1.13.32a2.54,2.54,0,0,1-.6,1,2.85,2.85,0,0,1-1.05.68A3.82,3.82,0,0,1,175.25,313Z" transform="translate(0 -54.95)"/><path d="M183.52,305.16v1h-4v-1Zm-2.8-1.83h1.17v7.28a1.5,1.5,0,0,0,.15.75.67.67,0,0,0,.37.32,1.37,1.37,0,0,0,.49.09,1.39,1.39,0,0,0,.32,0l.2,0,.24,1.05-.33.09a2.79,2.79,0,0,1-.55,0,2.39,2.39,0,0,1-1-.21A1.91,1.91,0,0,1,181,312a1.81,1.81,0,0,1-.31-1.1Z" transform="translate(0 -54.95)"/><path d="M188.61,305.16v1h-4v-1Zm-2.8-1.83H187v7.28a1.5,1.5,0,0,0,.15.75.67.67,0,0,0,.37.32,1.37,1.37,0,0,0,.49.09,1.39,1.39,0,0,0,.32,0l.2,0,.24,1.05-.33.09a2.76,2.76,0,0,1-.54,0,2.4,2.4,0,0,1-1-.21,1.91,1.91,0,0,1-.78-.66,1.81,1.81,0,0,1-.31-1.1Z" transform="translate(0 -54.95)"/><path d="M193.5,313a3.54,3.54,0,0,1-1.9-.49,3.27,3.27,0,0,1-1.23-1.37,4.77,4.77,0,0,1-.43-2.06,4.84,4.84,0,0,1,.43-2.07,3.38,3.38,0,0,1,1.21-1.4,3.17,3.17,0,0,1,1.8-.51,3.7,3.7,0,0,1,1.18.2,3,3,0,0,1,1.06.65,3.09,3.09,0,0,1,.76,1.17,5,5,0,0,1,.28,1.8v.5h-5.88v-1h4.69a2.54,2.54,0,0,0-.25-1.16,2,2,0,0,0-1.84-1.09,2.12,2.12,0,0,0-1.21.34,2.26,2.26,0,0,0-.78.9,2.65,2.65,0,0,0-.27,1.18v.68a3.19,3.19,0,0,0,.3,1.46,2.1,2.1,0,0,0,.83.91,2.6,2.6,0,0,0,2.09.18,1.71,1.71,0,0,0,.65-.39,1.82,1.82,0,0,0,.42-.67l1.14.32a2.45,2.45,0,0,1-.61,1,2.89,2.89,0,0,1-1,.68A3.84,3.84,0,0,1,193.5,313Z" transform="translate(0 -54.95)"/><path d="M202.39,315.66v-10.5h1.14v1.22h.13a6.11,6.11,0,0,1,.37-.51,2,2,0,0,1,.66-.56,2.46,2.46,0,0,1,1.18-.25,3,3,0,0,1,1.7.49,3.15,3.15,0,0,1,1.15,1.36,5.56,5.56,0,0,1,0,4.19,3.23,3.23,0,0,1-1.14,1.37,2.94,2.94,0,0,1-1.69.49,2.38,2.38,0,0,1-1.18-.25,2.15,2.15,0,0,1-.68-.56c-.16-.21-.28-.38-.37-.52h-.09v4Zm1.16-6.68a4.23,4.23,0,0,0,.25,1.53,2.24,2.24,0,0,0,.74,1,1.88,1.88,0,0,0,1.19.38,1.93,1.93,0,0,0,1.23-.4,2.41,2.41,0,0,0,.75-1.05A4.07,4.07,0,0,0,208,309a3.9,3.9,0,0,0-.25-1.45,2.2,2.2,0,0,0-.74-1,2,2,0,0,0-1.24-.38,2,2,0,0,0-1.2.36,2.18,2.18,0,0,0-.74,1A4.29,4.29,0,0,0,203.55,309Z" transform="translate(0 -54.95)"/><path d="M213.17,313a3,3,0,0,1-1.32-.28,2.28,2.28,0,0,1-.94-.8,2.25,2.25,0,0,1-.34-1.27,1.77,1.77,0,0,1,.94-1.71,4,4,0,0,1,1-.35c.35-.08.7-.14,1.06-.19l1.13-.13a1.9,1.9,0,0,0,.64-.16.43.43,0,0,0,.2-.4v0a1.58,1.58,0,0,0-.4-1.14,1.6,1.6,0,0,0-1.21-.41,2.07,2.07,0,0,0-2,1.15l-1.12-.4a2.73,2.73,0,0,1,.8-1.08,3.16,3.16,0,0,1,1.1-.55,4.71,4.71,0,0,1,1.17-.16,4.63,4.63,0,0,1,.84.09,2.8,2.8,0,0,1,.93.36,2.11,2.11,0,0,1,.75.81,3,3,0,0,1,.3,1.45v5H215.5v-1h-.06a2.1,2.1,0,0,1-.4.53,2.26,2.26,0,0,1-.74.48A2.93,2.93,0,0,1,213.17,313Zm.18-1.06a2.39,2.39,0,0,0,1.18-.27,1.94,1.94,0,0,0,.72-.7,1.79,1.79,0,0,0,.25-.91V309a.63.63,0,0,1-.33.16,5.68,5.68,0,0,1-.58.13l-.63.09-.49.06a4.24,4.24,0,0,0-.85.19,1.51,1.51,0,0,0-.64.39,1,1,0,0,0-.24.71,1,1,0,0,0,.45.92A2,2,0,0,0,213.35,311.92Z" transform="translate(0 -54.95)"/><path d="M221.9,315.82a4.5,4.5,0,0,1-1.46-.21,3.31,3.31,0,0,1-1-.57,3,3,0,0,1-.64-.75l.93-.66c.11.14.24.3.41.49a2.33,2.33,0,0,0,.66.47,2.74,2.74,0,0,0,1.12.2,2.48,2.48,0,0,0,1.53-.45,1.63,1.63,0,0,0,.6-1.4v-1.55h-.1a6.11,6.11,0,0,1-.37.51,1.85,1.85,0,0,1-.67.54,2.51,2.51,0,0,1-1.19.24,3.12,3.12,0,0,1-1.66-.44,3,3,0,0,1-1.15-1.27,4.35,4.35,0,0,1-.43-2,4.79,4.79,0,0,1,.41-2,3.22,3.22,0,0,1,1.15-1.36,3,3,0,0,1,1.7-.48,2.51,2.51,0,0,1,1.19.25,2,2,0,0,1,.67.56,6.11,6.11,0,0,1,.37.51h.12v-1.22h1.13V313a2.73,2.73,0,0,1-.44,1.6,2.61,2.61,0,0,1-1.2.91A4.42,4.42,0,0,1,221.9,315.82Zm0-4.19a2.06,2.06,0,0,0,1.19-.33,1.87,1.87,0,0,0,.74-.93,3.69,3.69,0,0,0,.26-1.45,3.92,3.92,0,0,0-.25-1.46,2.12,2.12,0,0,0-.74-1,2.2,2.2,0,0,0-2.44,0,2.24,2.24,0,0,0-.74,1,4,4,0,0,0-.25,1.41,3.85,3.85,0,0,0,.25,1.41,2.16,2.16,0,0,0,.75.95A2.1,2.1,0,0,0,221.86,311.63Z" transform="translate(0 -54.95)"/><path d="M230.55,313a3.54,3.54,0,0,1-1.9-.49,3.27,3.27,0,0,1-1.23-1.37A4.63,4.63,0,0,1,227,309a4.7,4.7,0,0,1,.43-2.07,3.43,3.43,0,0,1,1.2-1.4,3.22,3.22,0,0,1,1.81-.51,3.7,3.7,0,0,1,1.18.2,3,3,0,0,1,1.06.65,3.09,3.09,0,0,1,.76,1.17,5,5,0,0,1,.28,1.8v.5h-5.88v-1h4.69a2.54,2.54,0,0,0-.26-1.16,2,2,0,0,0-.72-.8,2.3,2.3,0,0,0-2.32,0,2.26,2.26,0,0,0-.78.9,2.66,2.66,0,0,0-.28,1.18v.68a3.19,3.19,0,0,0,.31,1.46,2.1,2.1,0,0,0,.83.91,2.6,2.6,0,0,0,2.09.18,1.71,1.71,0,0,0,.65-.39,1.82,1.82,0,0,0,.42-.67l1.13.32a2.54,2.54,0,0,1-.6,1,2.89,2.89,0,0,1-1,.68A3.88,3.88,0,0,1,230.55,313Z" transform="translate(0 -54.95)"/><path d="M240.61,308.21v4.59h-1.17v-7.64h1.13v1.2h.1a2.19,2.19,0,0,1,.82-.94,2.5,2.5,0,0,1,1.41-.36,2.82,2.82,0,0,1,1.36.32,2.13,2.13,0,0,1,.9.95,3.54,3.54,0,0,1,.33,1.62v4.85h-1.18V308a2,2,0,0,0-.46-1.41,1.7,1.7,0,0,0-1.29-.5,2.05,2.05,0,0,0-1,.24,1.75,1.75,0,0,0-.69.71A2.34,2.34,0,0,0,240.61,308.21Z" transform="translate(0 -54.95)"/><path d="M248.67,302.62v.89a2.79,2.79,0,0,1-.15.87,3.64,3.64,0,0,1-.43.89,2.86,2.86,0,0,1-.68.75l-.63-.52a6.24,6.24,0,0,0,.54-.93,2.3,2.3,0,0,0,.23-1v-.91Z" transform="translate(0 -54.95)"/><path d="M252.55,313a3.57,3.57,0,0,1-1.91-.49,3.19,3.19,0,0,1-1.22-1.37A4.63,4.63,0,0,1,249,309a4.7,4.7,0,0,1,.43-2.07,3.29,3.29,0,0,1,1.2-1.4,3.2,3.2,0,0,1,1.81-.51,3.64,3.64,0,0,1,1.17.2,3,3,0,0,1,1.06.65,3.09,3.09,0,0,1,.76,1.17,5,5,0,0,1,.29,1.8v.5h-5.89v-1h4.69a2.54,2.54,0,0,0-.25-1.16,1.94,1.94,0,0,0-.73-.8,2.28,2.28,0,0,0-2.31,0,2.29,2.29,0,0,0-.79.9,2.65,2.65,0,0,0-.27,1.18v.68a3.19,3.19,0,0,0,.3,1.46,2.07,2.07,0,0,0,.84.91,2.42,2.42,0,0,0,1.25.32,2.45,2.45,0,0,0,.83-.14,1.71,1.71,0,0,0,.65-.39,1.82,1.82,0,0,0,.42-.67l1.14.32a2.54,2.54,0,0,1-.6,1,2.93,2.93,0,0,1-1.05.68A3.82,3.82,0,0,1,252.55,313Z" transform="translate(0 -54.95)"/><path d="M258.17,305.16l1.83,3.13,1.83-3.13h1.35L260.72,309l2.46,3.82h-1.35l-1.83-3-1.83,3h-1.35l2.43-3.82-2.43-3.82Z" transform="translate(0 -54.95)"/><path d="M265.45,303.89a.86.86,0,0,1-.59-.23.79.79,0,0,1,0-1.13.86.86,0,0,1,.59-.23.84.84,0,0,1,.59.23.76.76,0,0,1,0,1.13A.84.84,0,0,1,265.45,303.89Zm-.6,8.91v-7.64H266v7.64Z" transform="translate(0 -54.95)"/><path d="M273.58,306.87l-1.05.3a2.21,2.21,0,0,0-.29-.51,1.46,1.46,0,0,0-.52-.42,1.88,1.88,0,0,0-.84-.16,2,2,0,0,0-1.17.32.94.94,0,0,0-.46.81.85.85,0,0,0,.32.69,2.72,2.72,0,0,0,1,.43l1.14.27a3.14,3.14,0,0,1,1.52.76,1.77,1.77,0,0,1,.5,1.31,2,2,0,0,1-.37,1.18,2.56,2.56,0,0,1-1.05.81,3.81,3.81,0,0,1-1.56.3,3.4,3.4,0,0,1-1.93-.51,2.23,2.23,0,0,1-1-1.48l1.11-.28a1.58,1.58,0,0,0,.61.93,2,2,0,0,0,1.16.3,2.16,2.16,0,0,0,1.31-.35,1,1,0,0,0,.48-.84.89.89,0,0,0-.28-.67,1.77,1.77,0,0,0-.85-.4l-1.28-.3a3,3,0,0,1-1.53-.77,1.84,1.84,0,0,1-.49-1.32,1.89,1.89,0,0,1,.36-1.14,2.53,2.53,0,0,1,1-.78,3.46,3.46,0,0,1,1.44-.29,2.85,2.85,0,0,1,1.78.5A2.69,2.69,0,0,1,273.58,306.87Z" transform="translate(0 -54.95)"/><path d="M278.81,305.16v1h-3.95v-1Zm-2.8-1.83h1.17v7.28a1.5,1.5,0,0,0,.15.75.69.69,0,0,0,.38.32,1.33,1.33,0,0,0,.49.09,1.45,1.45,0,0,0,.32,0l.2,0,.23,1.05-.33.09a2.61,2.61,0,0,1-.54,0,2.35,2.35,0,0,1-1-.21,1.94,1.94,0,0,1-.79-.66,1.81,1.81,0,0,1-.31-1.1Z" transform="translate(0 -54.95)"/><path d="M283.71,313a3.51,3.51,0,0,1-1.9-.49,3.15,3.15,0,0,1-1.23-1.37,4.63,4.63,0,0,1-.43-2.06,4.7,4.7,0,0,1,.43-2.07,3.36,3.36,0,0,1,1.2-1.4,3.22,3.22,0,0,1,1.81-.51,3.7,3.7,0,0,1,1.18.2,3,3,0,0,1,1.05.65,3.1,3.1,0,0,1,.77,1.17,5.23,5.23,0,0,1,.28,1.8v.5H281v-1h4.7a2.54,2.54,0,0,0-.26-1.16,1.94,1.94,0,0,0-.73-.8,2.07,2.07,0,0,0-1.1-.29,2.1,2.1,0,0,0-1.21.34,2.37,2.37,0,0,0-.79.9,2.65,2.65,0,0,0-.27,1.18v.68a3.19,3.19,0,0,0,.3,1.46,2.07,2.07,0,0,0,.84.91,2.57,2.57,0,0,0,2.08.18,1.71,1.71,0,0,0,1.08-1.06l1.13.32a2.54,2.54,0,0,1-.6,1,2.85,2.85,0,0,1-1,.68A3.82,3.82,0,0,1,283.71,313Z" transform="translate(0 -54.95)"/><path d="M292.6,315.66v-10.5h1.13v1.22h.14a5.69,5.69,0,0,1,.36-.51,2,2,0,0,1,.67-.56,2.43,2.43,0,0,1,1.18-.25,3,3,0,0,1,1.7.49,3.13,3.13,0,0,1,1.14,1.36,5.44,5.44,0,0,1,0,4.19,3.16,3.16,0,0,1-1.14,1.37,2.93,2.93,0,0,1-1.68.49,2.35,2.35,0,0,1-1.18-.25,2,2,0,0,1-.68-.56,5.44,5.44,0,0,1-.37-.52h-.1v4Zm1.15-6.68a4.23,4.23,0,0,0,.25,1.53,2.31,2.31,0,0,0,.74,1,2.09,2.09,0,0,0,2.43,0,2.31,2.31,0,0,0,.74-1.05,4.07,4.07,0,0,0,.25-1.48,4.12,4.12,0,0,0-.24-1.45,2.27,2.27,0,0,0-.74-1,2.21,2.21,0,0,0-2.45,0,2.16,2.16,0,0,0-.73,1A4.07,4.07,0,0,0,293.75,309Z" transform="translate(0 -54.95)"/><path d="M303.37,313a3,3,0,0,1-1.31-.28,2.16,2.16,0,0,1-.94-.8,2.26,2.26,0,0,1-.35-1.27,2,2,0,0,1,.26-1.06,1.8,1.8,0,0,1,.69-.65,4,4,0,0,1,1-.35c.35-.08.7-.14,1.05-.19l1.13-.13a1.83,1.83,0,0,0,.64-.16.43.43,0,0,0,.2-.4v0a1.54,1.54,0,0,0-.4-1.14,1.6,1.6,0,0,0-1.21-.41,2.07,2.07,0,0,0-2,1.15l-1.11-.4a2.64,2.64,0,0,1,.8-1.08,3,3,0,0,1,1.09-.55,4.84,4.84,0,0,1,1.17-.16,4.65,4.65,0,0,1,.85.09,2.8,2.8,0,0,1,.93.36,2.11,2.11,0,0,1,.75.81,3,3,0,0,1,.29,1.45v5H305.7v-1h-.06a2.1,2.1,0,0,1-.4.53,2.16,2.16,0,0,1-.74.48A2.89,2.89,0,0,1,303.37,313Zm.18-1.06a2.37,2.37,0,0,0,1.18-.27,2,2,0,0,0,.73-.7,1.88,1.88,0,0,0,.24-.91V309a.63.63,0,0,1-.32.16,5.68,5.68,0,0,1-.58.13l-.63.09-.5.06a4.4,4.4,0,0,0-.85.19,1.58,1.58,0,0,0-.64.39,1.16,1.16,0,0,0,.22,1.63A2,2,0,0,0,303.55,311.92Z" transform="translate(0 -54.95)"/><path d="M314.43,306.87l-1.05.3a2.65,2.65,0,0,0-.29-.51,1.46,1.46,0,0,0-.52-.42,1.88,1.88,0,0,0-.84-.16,2,2,0,0,0-1.17.32.94.94,0,0,0-.46.81.84.84,0,0,0,.31.69,2.86,2.86,0,0,0,1,.43l1.13.27a3.23,3.23,0,0,1,1.53.76,1.81,1.81,0,0,1,.5,1.31,2,2,0,0,1-.37,1.18,2.62,2.62,0,0,1-1.05.81,3.81,3.81,0,0,1-1.56.3,3.44,3.44,0,0,1-1.94-.51,2.27,2.27,0,0,1-1-1.48l1.12-.28a1.53,1.53,0,0,0,.6.93,2.07,2.07,0,0,0,1.17.3,2.13,2.13,0,0,0,1.3-.35,1,1,0,0,0,.49-.84.93.93,0,0,0-.28-.67,1.82,1.82,0,0,0-.86-.4l-1.27-.3a3.05,3.05,0,0,1-1.54-.77,1.89,1.89,0,0,1-.49-1.32,1.83,1.83,0,0,1,.37-1.14,2.4,2.4,0,0,1,1-.78,3.46,3.46,0,0,1,1.44-.29,2.87,2.87,0,0,1,1.78.5A2.69,2.69,0,0,1,314.43,306.87Z" transform="translate(0 -54.95)"/></g></svg>