<svg xmlns="http://www.w3.org/2000/svg" viewBox="0 0 500 372.61"><title>429</title><g id="Background_Complete" data-name="Background Complete"><rect y="327.45" width="500" height="0.25" style="fill:#ebebeb"/><path d="M237,337.8H43.91a5.71,5.71,0,0,1-5.7-5.71V60.66A5.71,5.71,0,0,1,43.91,55H237a5.71,5.71,0,0,1,5.71,5.71V332.09A5.71,5.71,0,0,1,237,337.8ZM43.91,55.2a5.46,5.46,0,0,0-5.45,5.46V332.09a5.46,5.46,0,0,0,5.45,5.46H237a5.47,5.47,0,0,0,5.46-5.46V60.66A5.47,5.47,0,0,0,237,55.2Z" transform="translate(0 -54.95)" style="fill:#ebebeb"/><path d="M453.31,337.8H260.21a5.72,5.72,0,0,1-5.71-5.71V60.66A5.72,5.72,0,0,1,260.21,55h193.1A5.71,5.71,0,0,1,459,60.66V332.09A5.71,5.71,0,0,1,453.31,337.8ZM260.21,55.2a5.47,5.47,0,0,0-5.46,5.46V332.09a5.47,5.47,0,0,0,5.46,5.46h193.1a5.47,5.47,0,0,0,5.46-5.46V60.66a5.47,5.47,0,0,0-5.46-5.46Z" transform="translate(0 -54.95)" style="fill:#ebebeb"/><rect x="51.28" y="336.97" width="26" height="0.25" style="fill:#ebebeb"/><rect x="145.15" y="334.26" width="45.03" height="0.25" style="fill:#ebebeb"/><rect x="78.28" y="346.26" width="60.79" height="0.25" style="fill:#ebebeb"/><rect x="429.49" y="344.58" width="19.23" height="0.25" style="fill:#ebebeb"/><rect x="365.29" y="344.58" width="55.29" height="0.25" style="fill:#ebebeb"/><rect x="257.05" y="340.35" width="74.47" height="0.25" style="fill:#ebebeb"/><path d="M190.83,215.44l-12.65,167h122l12.65-167Zm76.71,118A27.06,27.06,0,0,1,241,358.11a22.54,22.54,0,0,1-22.79-24.66l4.45-58.7a27.06,27.06,0,0,1,26.53-24.67A22.55,22.55,0,0,1,272,274.75Z" transform="translate(0 -54.95)" style="fill:#e6e6e6"/><polygon points="338.88 327.45 161 327.45 162.03 316.49 339.9 316.49 338.88 327.45" style="fill:#e6e6e6"/><path d="M407.22,320.41H423a1.55,1.55,0,0,0,1.55-1.64l-.06-1.12a1.73,1.73,0,0,0-1.71-1.63H407a1.55,1.55,0,0,0-1.56,1.63l.06,1.12A1.74,1.74,0,0,0,407.22,320.41Z" transform="translate(0 -54.95)" style="fill:#e0e0e0"/><path d="M380.89,320.41h15.75a1.54,1.54,0,0,0,1.55-1.64l-.06-1.12a1.73,1.73,0,0,0-1.71-1.63H380.67a1.55,1.55,0,0,0-1.56,1.63l.06,1.12A1.75,1.75,0,0,0,380.89,320.41Z" transform="translate(0 -54.95)" style="fill:#e0e0e0"/><path d="M435.23,319.17H67.6a8.16,8.16,0,0,1-8.06-7.68L48.47,90.67A7.22,7.22,0,0,1,55.76,83H423.39a8.15,8.15,0,0,1,8.06,7.67l11.07,220.82A7.23,7.23,0,0,1,435.23,319.17Z" transform="translate(0 -54.95)" style="fill:#e0e0e0"/><path d="M439.73,319.17H72.11A8.18,8.18,0,0,1,64,311.49L53,90.67A7.22,7.22,0,0,1,60.27,83H427.89A8.17,8.17,0,0,1,436,90.67L447,311.49A7.23,7.23,0,0,1,439.73,319.17Z" transform="translate(0 -54.95)" style="fill:#e6e6e6"/><path d="M74.26,303.76,64,98.41a4.54,4.54,0,0,1,4.57-4.81H420.69a5.1,5.1,0,0,1,5.05,4.81L436,303.76a4.53,4.53,0,0,1-4.56,4.81H79.31A5.11,5.11,0,0,1,74.26,303.76Z" transform="translate(0 -54.95)" style="fill:#f5f5f5"/><path d="M85.66,104.1a4,4,0,0,1-4,4.26,4.53,4.53,0,0,1-4.47-4.26,4,4,0,0,1,4-4.25A4.51,4.51,0,0,1,85.66,104.1Z" transform="translate(0 -54.95)" style="fill:#fff"/><path d="M104.93,104.1a4,4,0,0,1-4,4.26,4.53,4.53,0,0,1-4.47-4.26,4,4,0,0,1,4-4.25A4.51,4.51,0,0,1,104.93,104.1Z" transform="translate(0 -54.95)" style="fill:#fff"/><path d="M124.21,104.1a4,4,0,0,1-4,4.26,4.51,4.51,0,0,1-4.46-4.26,4,4,0,0,1,4-4.25A4.52,4.52,0,0,1,124.21,104.1Z" transform="translate(0 -54.95)" style="fill:#fff"/><g style="opacity:0.6000000000000001"><polygon points="110.88 253.62 161.63 253.62 208.03 38.64 157.28 38.64 110.88 253.62" style="fill:#fff"/><polygon points="329.28 253.62 342.13 253.62 388.53 38.64 375.68 38.64 329.28 253.62" style="fill:#fff"/><polygon points="172.91 253.62 244.91 253.62 291.31 38.64 219.31 38.64 172.91 253.62" style="fill:#fff"/></g></g><g id="Shadow"><ellipse id="_Path_" data-name="&lt;Path&gt;" cx="250" cy="361.29" rx="193.89" ry="11.32" style="fill:#f5f5f5"/></g><g id="Character"><path d="M360.6,263.05h-.36c-26.64-2.18-45-25-45.74-25.92a4.47,4.47,0,0,1,7-5.55c.21.27,15.9,19.61,37.63,22.37,7-7,13-25.48,12.33-31.07,0-.06,0-.11,0-.16-.14-1.8-.48-8,1.29-11.65a4.47,4.47,0,0,1,8,3.88c-.44.92-.65,4.23-.44,7,1,9.2-7,32.42-17,40.19A4.47,4.47,0,0,1,360.6,263.05Z" transform="translate(0 -54.95)" style="fill:#263238"/><path d="M148.82,238.82a65.8,65.8,0,0,1-48.56-22.28,4.46,4.46,0,0,1-.26-5.64c7.22-9.71,20-32.64,22-40.11a10.91,10.91,0,0,0-4.14-4.33,4.45,4.45,0,0,1-2.55-3.61l-.72-7.32a4.47,4.47,0,0,1,8.89-.88l.5,5.09a22.34,22.34,0,0,1,6.81,8.65,4.48,4.48,0,0,1,.32,2.26c-.92,7.93-13.79,30.9-21.71,42.51,18.49,18.43,40.59,16.75,41.56,16.66a4.47,4.47,0,0,1,.82,8.9C151.52,238.74,150.49,238.82,148.82,238.82Z" transform="translate(0 -54.95)" style="fill:#263238"/><path d="M292.87,416.09h-12a4.47,4.47,0,0,1-4.31-5.66c3.13-11.24,4.67-20.39,5.82-34.71-4.24-20-8.23-38.21-8.27-38.39a4.47,4.47,0,0,1,8.73-1.91c0,.18,4.12,18.86,8.41,39.08a4.23,4.23,0,0,1,.08,1.28c-1,12.86-2.31,21.75-4.67,31.38h6.18a4.47,4.47,0,0,1,0,8.93Z" transform="translate(0 -54.95)" style="fill:#263238"/><path d="M200.32,416.09h-6.76a4.45,4.45,0,0,1-4.42-5.08c1.15-8.2,7-23.13,13.3-38.14,2.23-19.8,4.05-36.8,4.07-37a4.47,4.47,0,1,1,8.88,1c0,.17-1.88,17.56-4.15,37.65a4.31,4.31,0,0,1-.32,1.22c-4.43,10.63-9.49,23.15-11.8,31.44h1.2a4.47,4.47,0,1,1,0,8.93Z" transform="translate(0 -54.95)" style="fill:#263238"/><path d="M204.21,111l-52.06,52.07c-2.62,57.71-2.41,118.33,0,181.18H324.31c-3.41-81.1-3.73-159.17,0-233.25Z" transform="translate(0 -54.95)" style="fill:#fff"/><path d="M324.31,345.13H152.15a.9.9,0,0,1-.9-.86C148.76,279,148.76,218,151.25,163a.9.9,0,0,1,.27-.59l52.06-52.07a.89.89,0,0,1,.63-.26h120.1a.9.9,0,0,1,.65.28.87.87,0,0,1,.24.66c-3.59,71.34-3.59,147.61,0,233.17a.89.89,0,0,1-.25.65A.86.86,0,0,1,324.31,345.13ZM153,343.34H323.38c-3.54-84.86-3.55-160.59,0-231.47H204.58L153,163.43C150.55,218.07,150.55,278.59,153,343.34Z" transform="translate(0 -54.95)" style="fill:#263238"/><path d="M293.44,319.46H274.66a.67.67,0,0,1-.67-.67.66.66,0,0,1,.67-.66h18.78a.66.66,0,0,1,.67.66A.67.67,0,0,1,293.44,319.46Z" transform="translate(0 -54.95)" style="fill:#407bff"/><path d="M266.88,319.46H183a.67.67,0,0,1-.67-.67.66.66,0,0,1,.67-.66h83.86a.66.66,0,0,1,.67.66A.67.67,0,0,1,266.88,319.46Z" transform="translate(0 -54.95)" style="fill:#407bff"/><path d="M214.28,219.19c-.2-4.36-2.67-7.8-5.53-7.7s-5,3.71-4.82,8.07,2.67,7.8,5.53,7.69S214.48,223.54,214.28,219.19Z" transform="translate(0 -54.95)" style="fill:#407bff"/><path d="M274.65,217.82c-.2-4.35-2.67-7.79-5.53-7.69s-5,3.71-4.82,8.07,2.68,7.8,5.53,7.69S274.85,222.18,274.65,217.82Z" transform="translate(0 -54.95)" style="fill:#407bff"/><path d="M229.35,237a36.55,36.55,0,0,1,28.63,1.3,1.27,1.27,0,0,1,.49,1.74,1.3,1.3,0,0,1-1.75.49c-.15-.08-14.4-7.76-31.41,1a1.31,1.31,0,0,1-1.74-.54,1.27,1.27,0,0,1,.55-1.72A41.73,41.73,0,0,1,229.35,237Z" transform="translate(0 -54.95)" style="fill:#407bff"/><path d="M205.64,178.34a2.64,2.64,0,0,1,1.26.36,2.58,2.58,0,0,1,.92,3.51A25.29,25.29,0,0,1,188.27,195a2.59,2.59,0,0,1-2.69-2.45,2.55,2.55,0,0,1,2.44-2.66h0c.39,0,9.62-.58,15.36-10.27A2.52,2.52,0,0,1,205.64,178.34Z" transform="translate(0 -54.95)" style="fill:#407bff"/><path d="M266.05,176.87a2.57,2.57,0,0,1,2.33.72c8,8,17.14,6.39,17.52,6.32a2.6,2.6,0,0,1,3,2,2.54,2.54,0,0,1-2,3c-.5.09-12.14,2.31-22.21-7.75a2.54,2.54,0,0,1,1.31-4.3Z" transform="translate(0 -54.95)" style="fill:#407bff"/><path d="M321.72,204.86l-7.31.68a5.22,5.22,0,0,1-5.58-4.06L298.7,156.1a5.22,5.22,0,0,1,3.77-6.18l19.59-5.14Z" transform="translate(0 -54.95)" style="opacity:0.2"/><path d="M209,167.69c-5.09-13.89-10.18-36.12-4.81-56.71l-52.06,52.07C166.86,168,190.32,170.11,209,167.69Z" transform="translate(0 -54.95)" style="opacity:0.2"/><path d="M204.21,163.05c-5.71-16.86-3.38-39.78,0-52.07l-52.06,52.07C167.91,165.92,185.52,165.46,204.21,163.05Z" transform="translate(0 -54.95)" style="fill:#fff"/><path d="M176,165.92a133.14,133.14,0,0,1-24-2,.88.88,0,0,1-.47-1.5l52.06-52.07a.89.89,0,0,1,1.49.87c-3.14,11.44-5.75,34.6,0,51.54a.93.93,0,0,1-.09.76.87.87,0,0,1-.64.41A221.85,221.85,0,0,1,176,165.92Zm-22-3.46c13.84,2.29,29.91,2.24,49-.16-4.71-14.94-3.64-34.71-.48-48.4Z" transform="translate(0 -54.95)" style="fill:#263238"/><path d="M383.1,239.11a1.49,1.49,0,0,1-1.44-1.11l-18.34-69.88a1.49,1.49,0,0,1,2.89-.76l18.34,69.88a1.49,1.49,0,0,1-1.07,1.82A1.2,1.2,0,0,1,383.1,239.11Z" transform="translate(0 -54.95)" style="fill:#263238"/><rect x="416.35" y="136.8" width="1" height="5.51" transform="matrix(0.97, -0.25, 0.25, 0.97, -21.77, 55.42)" style="fill:#407bff"/><path d="M414.11,131.09l-3.85-14.67a7.76,7.76,0,0,0-9.46-5.53l-10.07,2.64-.25-1,10.07-2.65a8.76,8.76,0,0,1,10.67,6.24l3.86,14.68Z" transform="translate(0 -54.95)" style="fill:#407bff"/><rect x="306.61" y="124.87" width="109.05" height="58.03" rx="5.24" transform="translate(-27.23 41.75) rotate(-14.7)" style="fill:#407bff"/><rect x="333.5" y="174.37" width="72.67" height="25.34" rx="5.24" transform="translate(-35.36 45.04) rotate(-14.7)" style="fill:#407bff"/><path d="M342.15,187.94l8.23-2.14.55,2.12-5.15,1.34.41,1.58L351,189.6l.53,2-4.78,1.25.51,1.95,5.3-1.37.58,2.25-8.37,2.18Z" transform="translate(0 -54.95)" style="fill:#fff"/><path d="M354.81,195.26l-2.59-9.94,5.12-1.33a7.66,7.66,0,0,1,2.24-.32,2.39,2.39,0,0,1,1.45.59,3.15,3.15,0,0,1,.9,3,2.75,2.75,0,0,1-.72,1.23,3.69,3.69,0,0,1-1,.67,2.09,2.09,0,0,1,1.52.56,5,5,0,0,1,.6.5l2.23,2.49-3.47.91L358.68,191a2.32,2.32,0,0,0-.75-.62,1.35,1.35,0,0,0-.82,0l-.27.07,1.05,4Zm1.54-6.72,1.3-.33a4.8,4.8,0,0,0,.78-.35.8.8,0,0,0,.41-.44,1,1,0,0,0-.45-1.29,2,2,0,0,0-1.21,0l-1.35.35Z" transform="translate(0 -54.95)" style="fill:#fff"/><path d="M365.6,192.45,363,182.51l5.12-1.33a8,8,0,0,1,2.24-.32,2.37,2.37,0,0,1,1.44.59,2.76,2.76,0,0,1,.88,1.49,2.81,2.81,0,0,1,0,1.52,2.85,2.85,0,0,1-.71,1.22,4.14,4.14,0,0,1-1,.68,2.89,2.89,0,0,1,.89.15,3.47,3.47,0,0,1,.63.4,4.68,4.68,0,0,1,.59.5l2.24,2.5-3.47.9-2.43-2.61a2.24,2.24,0,0,0-.76-.62,1.32,1.32,0,0,0-.81,0l-.27.07,1.05,4Zm1.55-6.71,1.3-.34a5.28,5.28,0,0,0,.77-.35.79.79,0,0,0,.42-.44,1,1,0,0,0-.45-1.28,1.89,1.89,0,0,0-1.22,0l-1.34.35Z" transform="translate(0 -54.95)" style="fill:#fff"/><path d="M374.45,184.85a4.86,4.86,0,0,1,3.79-6.48,5.4,5.4,0,0,1,4.17.34,5.23,5.23,0,0,1,2.31,3.38,6.45,6.45,0,0,1,.16,3,4.29,4.29,0,0,1-1.25,2.18,5.82,5.82,0,0,1-2.6,1.34,6.51,6.51,0,0,1-2.92.18,4.3,4.3,0,0,1-2.23-1.22A5.92,5.92,0,0,1,374.45,184.85Zm3.07-.78a3.4,3.4,0,0,0,1.12,2,2.18,2.18,0,0,0,3.06-.78,3.79,3.79,0,0,0-.06-2.45,3.15,3.15,0,0,0-1.1-1.9,2,2,0,0,0-1.7-.25,1.92,1.92,0,0,0-1.32,1.05A3.47,3.47,0,0,0,377.52,184.07Z" transform="translate(0 -54.95)" style="fill:#fff"/><path d="M387.73,186.69l-2.59-9.93,5.12-1.33a7.29,7.29,0,0,1,2.24-.32,2.36,2.36,0,0,1,1.45.59,3.11,3.11,0,0,1,.89,3,2.88,2.88,0,0,1-.71,1.23,3.69,3.69,0,0,1-1,.67,3.24,3.24,0,0,1,.9.16,3.08,3.08,0,0,1,.62.39,4,4,0,0,1,.59.51l2.24,2.49-3.47.91-2.43-2.61a2.43,2.43,0,0,0-.76-.63,1.39,1.39,0,0,0-.81,0l-.27.07,1.05,4Zm1.54-6.71,1.3-.33a5.94,5.94,0,0,0,.78-.35.84.84,0,0,0,.41-.44,1,1,0,0,0-.45-1.29,1.93,1.93,0,0,0-1.21,0l-1.35.35Z" transform="translate(0 -54.95)" style="fill:#fff"/><path d="M324.68,175l-1.42-5.64,8.54-25.82,4.86-1.22,2,7.8-2.87.72-5.37,16.34.07.27,20.08-5.05,1.44,5.73Zm17.75,1.86-1.93-7.67-.5-2.53L334.05,143l6.71-1.68,8.51,33.85Z" transform="translate(0 -54.95)" style="fill:#fff"/><path d="M358.25,172.92l-1.3-5.15,9.25-14.19c.77-1.25,1.41-2.36,1.91-3.33a10.49,10.49,0,0,0,1-2.74,6,6,0,0,0-.08-2.63,4.87,4.87,0,0,0-1.33-2.4,4.67,4.67,0,0,0-2.27-1.2,6,6,0,0,0-2.81.08,5.78,5.78,0,0,0-2.55,1.31,4.4,4.4,0,0,0-1.33,2.25,5.94,5.94,0,0,0,.07,3L352,149.58a11.14,11.14,0,0,1,.05-6.15,10.37,10.37,0,0,1,3.26-4.84,14.37,14.37,0,0,1,5.92-2.91,15,15,0,0,1,6.66-.31,10.54,10.54,0,0,1,5.1,2.48,9.5,9.5,0,0,1,2.81,4.82,10.53,10.53,0,0,1,.2,4,16.62,16.62,0,0,1-1.63,4.81,63.22,63.22,0,0,1-4,6.81l-3.72,6.09.06.23L380.91,161l1.47,5.85Z" transform="translate(0 -54.95)" style="fill:#fff"/><path d="M391.17,128.05a15.27,15.27,0,0,1,5.25-.4,11.89,11.89,0,0,1,5,1.72,13.89,13.89,0,0,1,4.32,4.35,25.14,25.14,0,0,1,3.1,7.54,29.34,29.34,0,0,1,.95,8,17.66,17.66,0,0,1-1.33,6.44,12.36,12.36,0,0,1-3.43,4.68,13.17,13.17,0,0,1-5.37,2.66,13.32,13.32,0,0,1-6.31.19A11.32,11.32,0,0,1,385.1,156l7.06-1.78a5,5,0,0,0,2.46,2.44,5.4,5.4,0,0,0,3.53.19,5.68,5.68,0,0,0,4.3-4.15,16,16,0,0,0-.26-8.34l-.23,0a8.09,8.09,0,0,1-1.4,3.07,9.67,9.67,0,0,1-2.54,2.39,11.3,11.3,0,0,1-3.38,1.47,10.62,10.62,0,0,1-5.71-.06,10.47,10.47,0,0,1-4.68-2.95,11.74,11.74,0,0,1-2.76-5.31,11.94,11.94,0,0,1,0-6.5,11.55,11.55,0,0,1,3.39-5.31A14.13,14.13,0,0,1,391.17,128.05Zm1.46,5.61a5.73,5.73,0,0,0-2.77,1.54,6,6,0,0,0-1.51,2.66,6.32,6.32,0,0,0,0,3.23,6.24,6.24,0,0,0,1.48,2.84,5.84,5.84,0,0,0,2.56,1.62,5.67,5.67,0,0,0,3.14,0,5.54,5.54,0,0,0,2.17-1,5.76,5.76,0,0,0,1.52-1.74,6.38,6.38,0,0,0,.63-4.65,6.57,6.57,0,0,0-1.51-2.8,6,6,0,0,0-2.6-1.64A5.58,5.58,0,0,0,392.63,133.66Z" transform="translate(0 -54.95)" style="fill:#fff"/><path d="M180.18,286.91v-1.09h7.64v1.09h-3.21V296h-1.23v-9.09Z" transform="translate(0 -54.95)"/><path d="M188.77,296v-7.64h1.13v1.16H190a1.79,1.79,0,0,1,.76-.92,2.17,2.17,0,0,1,1.23-.36h.62v1.2l-.27,0a3.19,3.19,0,0,0-.45,0,2.13,2.13,0,0,0-1,.23,1.72,1.72,0,0,0-.94,1.56V296Z" transform="translate(0 -54.95)"/><path d="M196.84,296.16a3.21,3.21,0,0,1-3-1.87,5.11,5.11,0,0,1,0-4.15,3.21,3.21,0,0,1,1.21-1.38,3.3,3.3,0,0,1,1.81-.5,3.33,3.33,0,0,1,1.82.5,3.27,3.27,0,0,1,1.21,1.38,5.22,5.22,0,0,1,0,4.15,3.4,3.4,0,0,1-1.21,1.38A3.33,3.33,0,0,1,196.84,296.16Zm0-1.05a2,2,0,0,0,1.3-.41,2.41,2.41,0,0,0,.75-1.06,4.07,4.07,0,0,0,.24-1.42,4.21,4.21,0,0,0-.24-1.43,2.41,2.41,0,0,0-.75-1.06,2.25,2.25,0,0,0-2.59,0,2.34,2.34,0,0,0-.75,1.06,4.21,4.21,0,0,0-.24,1.43,4.07,4.07,0,0,0,.24,1.42,2.34,2.34,0,0,0,.75,1.06A2,2,0,0,0,196.84,295.11Z" transform="translate(0 -54.95)"/><path d="M202.09,298.86v-10.5h1.14v1.22h.14a4.17,4.17,0,0,1,.36-.51,2,2,0,0,1,.66-.56,2.46,2.46,0,0,1,1.18-.25,3,3,0,0,1,1.7.49,3.15,3.15,0,0,1,1.15,1.36,5.44,5.44,0,0,1,0,4.19,3.16,3.16,0,0,1-1.14,1.37,2.94,2.94,0,0,1-1.69.49,2.31,2.31,0,0,1-1.17-.25,2.09,2.09,0,0,1-.69-.56c-.15-.21-.28-.38-.36-.52h-.1v4Zm1.16-6.68a4.23,4.23,0,0,0,.25,1.53,2.31,2.31,0,0,0,.74,1,1.91,1.91,0,0,0,1.2.38,1.93,1.93,0,0,0,1.23-.4,2.33,2.33,0,0,0,.74-1,4.07,4.07,0,0,0,.25-1.48,4.12,4.12,0,0,0-.24-1.45,2.27,2.27,0,0,0-.74-1,2.21,2.21,0,0,0-2.45,0,2.16,2.16,0,0,0-.73,1A4.07,4.07,0,0,0,203.25,292.18Z" transform="translate(0 -54.95)"/><path d="M217.45,296.16a2.94,2.94,0,0,1-1.69-.49,3.16,3.16,0,0,1-1.14-1.37,5.44,5.44,0,0,1,0-4.19,3.15,3.15,0,0,1,1.15-1.36,3,3,0,0,1,1.7-.49,2.46,2.46,0,0,1,1.18.25,2,2,0,0,1,.66.56,4.17,4.17,0,0,1,.36.51h.1v-3.76H221V296h-1.14v-1.17h-.14c-.08.14-.21.31-.36.52a2.09,2.09,0,0,1-.69.56A2.31,2.31,0,0,1,217.45,296.16Zm.16-1.05a1.9,1.9,0,0,0,1.19-.38,2.31,2.31,0,0,0,.74-1,4.23,4.23,0,0,0,.25-1.53,4.07,4.07,0,0,0-.25-1.5,2.16,2.16,0,0,0-.73-1,2,2,0,0,0-1.2-.36,2,2,0,0,0-1.25.38,2.34,2.34,0,0,0-.74,1,4.12,4.12,0,0,0-.24,1.45,4.07,4.07,0,0,0,.25,1.48,2.35,2.35,0,0,0,.75,1A1.89,1.89,0,0,0,217.61,295.11Z" transform="translate(0 -54.95)"/><path d="M226.45,296.16a3.54,3.54,0,0,1-1.9-.49,3.27,3.27,0,0,1-1.23-1.37,4.77,4.77,0,0,1-.43-2.06,4.84,4.84,0,0,1,.43-2.07,3.38,3.38,0,0,1,1.21-1.4,3.2,3.2,0,0,1,1.81-.51,3.64,3.64,0,0,1,1.17.2,3,3,0,0,1,1.06.65,3.09,3.09,0,0,1,.76,1.17,5,5,0,0,1,.29,1.8v.5h-5.89v-1h4.69a2.54,2.54,0,0,0-.25-1.16,2,2,0,0,0-.73-.8,2.07,2.07,0,0,0-1.1-.29,2.13,2.13,0,0,0-1.22.34,2.26,2.26,0,0,0-.78.9,2.65,2.65,0,0,0-.27,1.18v.68a3.19,3.19,0,0,0,.3,1.46,2.07,2.07,0,0,0,.84.91,2.38,2.38,0,0,0,1.24.32,2.47,2.47,0,0,0,.84-.14,1.71,1.71,0,0,0,.65-.39,1.82,1.82,0,0,0,.42-.67l1.14.32a2.54,2.54,0,0,1-.6,1,2.93,2.93,0,0,1-1.05.68A3.84,3.84,0,0,1,226.45,296.16Z" transform="translate(0 -54.95)"/><path d="M235.34,296v-7.64h1.14v1.16h.08a1.82,1.82,0,0,1,.75-.92,2.22,2.22,0,0,1,1.24-.36h.61v1.2l-.27,0a3.15,3.15,0,0,0-.44,0,2.14,2.14,0,0,0-1,.23,1.75,1.75,0,0,0-.68.64,1.67,1.67,0,0,0-.25.92V296Z" transform="translate(0 -54.95)"/><path d="M243.52,296.16a3.51,3.51,0,0,1-1.9-.49,3.15,3.15,0,0,1-1.23-1.37,4.63,4.63,0,0,1-.43-2.06,4.7,4.7,0,0,1,.43-2.07,3.36,3.36,0,0,1,1.2-1.4,3.22,3.22,0,0,1,1.81-.51,3.7,3.7,0,0,1,1.18.2,3.1,3.1,0,0,1,1.06.65,3.21,3.21,0,0,1,.76,1.17,5.23,5.23,0,0,1,.28,1.8v.5h-5.89v-1h4.7a2.54,2.54,0,0,0-.26-1.16,1.94,1.94,0,0,0-.73-.8,2.07,2.07,0,0,0-1.1-.29,2.1,2.1,0,0,0-1.21.34,2.37,2.37,0,0,0-.79.9,2.65,2.65,0,0,0-.27,1.18v.68a3.19,3.19,0,0,0,.3,1.46,2.07,2.07,0,0,0,.84.91,2.57,2.57,0,0,0,2.08.18,1.71,1.71,0,0,0,1.08-1.06l1.13.32a2.54,2.54,0,0,1-.6,1,2.85,2.85,0,0,1-1.05.68A3.82,3.82,0,0,1,243.52,296.16Z" transform="translate(0 -54.95)"/><path d="M254.85,298.86h-1.17v-4h-.1c-.09.14-.21.31-.37.52a2,2,0,0,1-.68.56,2.35,2.35,0,0,1-1.18.25,2.91,2.91,0,0,1-1.68-.49,3.25,3.25,0,0,1-1.15-1.37,5.56,5.56,0,0,1,0-4.19,3.22,3.22,0,0,1,1.15-1.36,3,3,0,0,1,1.7-.49,2.43,2.43,0,0,1,1.18.25,2.1,2.1,0,0,1,.67.56q.22.3.36.51h.14v-1.22h1.13Zm-1.15-6.68a4.07,4.07,0,0,0-.25-1.5,2.18,2.18,0,0,0-.74-1,1.94,1.94,0,0,0-1.2-.36,2,2,0,0,0-1.24.38,2.2,2.2,0,0,0-.74,1,4.12,4.12,0,0,0-.25,1.45,4.07,4.07,0,0,0,.26,1.48,2.26,2.26,0,0,0,.74,1,1.93,1.93,0,0,0,1.23.4,1.88,1.88,0,0,0,1.19-.38,2.26,2.26,0,0,0,.75-1A4.46,4.46,0,0,0,253.7,292.18Z" transform="translate(0 -54.95)"/><path d="M261.81,292.88v-4.52H263V296h-1.18v-1.29h-.08a2.5,2.5,0,0,1-.83,1,2.42,2.42,0,0,1-1.43.41,2.56,2.56,0,0,1-1.28-.32,2.18,2.18,0,0,1-.87-.95,3.63,3.63,0,0,1-.32-1.61v-4.86h1.17v4.78a1.88,1.88,0,0,0,.47,1.33,1.61,1.61,0,0,0,1.2.5,2,2,0,0,0,2-2.09Z" transform="translate(0 -54.95)"/><path d="M268.33,296.16a3.56,3.56,0,0,1-1.9-.49,3.19,3.19,0,0,1-1.22-1.37,4.63,4.63,0,0,1-.43-2.06,4.7,4.7,0,0,1,.43-2.07,3.29,3.29,0,0,1,1.2-1.4,3.2,3.2,0,0,1,1.81-.51,3.64,3.64,0,0,1,1.17.2,3,3,0,0,1,1.06.65,3.09,3.09,0,0,1,.76,1.17,5,5,0,0,1,.29,1.8v.5h-5.89v-1h4.69a2.54,2.54,0,0,0-.25-1.16,1.94,1.94,0,0,0-.73-.8,2.07,2.07,0,0,0-1.1-.29,2.13,2.13,0,0,0-1.22.34,2.34,2.34,0,0,0-.78.9,2.65,2.65,0,0,0-.27,1.18v.68a3.19,3.19,0,0,0,.3,1.46,2.07,2.07,0,0,0,.84.91,2.41,2.41,0,0,0,1.24.32,2.47,2.47,0,0,0,.84-.14,1.71,1.71,0,0,0,.65-.39,1.82,1.82,0,0,0,.42-.67l1.14.32a2.54,2.54,0,0,1-.6,1,2.93,2.93,0,0,1-1,.68A3.84,3.84,0,0,1,268.33,296.16Zm-1.21-8.71H266v-.08l1.61-2.07h1.07l1.61,2.07v.08h-1.11l-1-1.39Z" transform="translate(0 -54.95)"/><path d="M276.61,288.36v1h-4v-1Zm-2.81-1.83H275v7.28a1.64,1.64,0,0,0,.14.75.73.73,0,0,0,.38.32,1.37,1.37,0,0,0,.49.09,1.39,1.39,0,0,0,.32,0l.2,0,.24,1-.34.09a2.61,2.61,0,0,1-.54.05,2.39,2.39,0,0,1-1-.21,1.94,1.94,0,0,1-.79-.66,1.88,1.88,0,0,1-.31-1.1Z" transform="translate(0 -54.95)"/><path d="M281.5,296.16a3.51,3.51,0,0,1-1.9-.49,3.27,3.27,0,0,1-1.23-1.37,4.63,4.63,0,0,1-.43-2.06,4.7,4.7,0,0,1,.43-2.07,3.43,3.43,0,0,1,1.2-1.4,3.22,3.22,0,0,1,1.81-.51,3.7,3.7,0,0,1,1.18.2,3,3,0,0,1,1.06.65,3.09,3.09,0,0,1,.76,1.17,5,5,0,0,1,.28,1.8v.5h-5.88v-1h4.69a2.54,2.54,0,0,0-.26-1.16,2,2,0,0,0-.72-.8,2.14,2.14,0,0,0-1.11-.29,2.1,2.1,0,0,0-1.21.34,2.26,2.26,0,0,0-.78.9,2.53,2.53,0,0,0-.28,1.18v.68a3.19,3.19,0,0,0,.3,1.46,2.07,2.07,0,0,0,.84.91,2.6,2.6,0,0,0,2.09.18,1.79,1.79,0,0,0,.65-.39,1.82,1.82,0,0,0,.42-.67l1.13.32a2.54,2.54,0,0,1-.6,1,2.89,2.89,0,0,1-1,.68A3.88,3.88,0,0,1,281.5,296.16Z" transform="translate(0 -54.95)"/><path d="M291.86,290.07l-1.05.3a2.65,2.65,0,0,0-.29-.51,1.55,1.55,0,0,0-.52-.42,1.88,1.88,0,0,0-.84-.16,2,2,0,0,0-1.17.32.94.94,0,0,0-.46.81.84.84,0,0,0,.31.69,2.86,2.86,0,0,0,1,.43l1.13.27a3.23,3.23,0,0,1,1.53.76,1.81,1.81,0,0,1,.5,1.31,2,2,0,0,1-.38,1.18,2.52,2.52,0,0,1-1,.81,3.81,3.81,0,0,1-1.56.3,3.44,3.44,0,0,1-1.94-.51,2.27,2.27,0,0,1-1-1.48l1.12-.28a1.53,1.53,0,0,0,.6.93,2.07,2.07,0,0,0,1.17.31,2.13,2.13,0,0,0,1.3-.36,1,1,0,0,0,.49-.84.93.93,0,0,0-.28-.67,1.82,1.82,0,0,0-.86-.4l-1.27-.3a3.05,3.05,0,0,1-1.54-.77,1.89,1.89,0,0,1-.49-1.32,1.83,1.83,0,0,1,.37-1.14,2.4,2.4,0,0,1,1-.78,3.46,3.46,0,0,1,1.44-.29,2.87,2.87,0,0,1,1.78.5A2.69,2.69,0,0,1,291.86,290.07Z" transform="translate(0 -54.95)"/><path d="M294.62,296.08a.9.9,0,1,1,.9-.9.84.84,0,0,1-.12.45.87.87,0,0,1-.33.33A.84.84,0,0,1,294.62,296.08Z" transform="translate(0 -54.95)"/><path d="M208.12,312.8V302.62h3.44a3.92,3.92,0,0,1,2,.43,2.63,2.63,0,0,1,1.13,1.16,3.52,3.52,0,0,1,.37,1.63,3.59,3.59,0,0,1-.37,1.64,2.68,2.68,0,0,1-1.12,1.17,3.91,3.91,0,0,1-1.95.43h-2.47V308h2.43a2.64,2.64,0,0,0,1.32-.29,1.7,1.7,0,0,0,.72-.76,2.61,2.61,0,0,0,.23-1.1,2.53,2.53,0,0,0-.23-1.09,1.58,1.58,0,0,0-.73-.76,2.68,2.68,0,0,0-1.33-.28h-2.17v9.09Z" transform="translate(0 -54.95)"/><path d="M219.1,313a3,3,0,0,1-1.32-.28,2.16,2.16,0,0,1-.94-.8,2.26,2.26,0,0,1-.35-1.27,2,2,0,0,1,.26-1.06,1.8,1.8,0,0,1,.69-.65,4,4,0,0,1,1-.35c.35-.08.7-.14,1-.19l1.14-.13a1.77,1.77,0,0,0,.63-.16.41.41,0,0,0,.2-.4v0a1.54,1.54,0,0,0-.4-1.14,1.58,1.58,0,0,0-1.21-.41,2,2,0,0,0-1.31.37,2.13,2.13,0,0,0-.68.78l-1.11-.4a2.73,2.73,0,0,1,.8-1.08,3.12,3.12,0,0,1,1.09-.55,4.84,4.84,0,0,1,1.17-.16,4.65,4.65,0,0,1,.85.09,2.8,2.8,0,0,1,.93.36,2.11,2.11,0,0,1,.75.81,3,3,0,0,1,.3,1.45v5h-1.18v-1h-.06a2.29,2.29,0,0,1-.39.53,2.37,2.37,0,0,1-.74.48A2.93,2.93,0,0,1,219.1,313Zm.18-1.06a2.35,2.35,0,0,0,1.17-.27,2,2,0,0,0,.73-.7,1.88,1.88,0,0,0,.24-.91V309a.59.59,0,0,1-.32.16,5.68,5.68,0,0,1-.58.13l-.63.09-.49.06a4.51,4.51,0,0,0-.86.19,1.54,1.54,0,0,0-.63.39,1,1,0,0,0-.25.71,1,1,0,0,0,.46.92A2,2,0,0,0,219.28,311.92Z" transform="translate(0 -54.95)"/><path d="M228.07,305.16v1h-4v-1Zm-2.81-1.83h1.17v7.28a1.5,1.5,0,0,0,.15.75.69.69,0,0,0,.38.32,1.33,1.33,0,0,0,.49.09,1.45,1.45,0,0,0,.32,0l.2,0,.23,1.05a2.07,2.07,0,0,1-.33.09,2.61,2.61,0,0,1-.54,0,2.35,2.35,0,0,1-1-.21,1.94,1.94,0,0,1-.79-.66,1.81,1.81,0,0,1-.31-1.1Z" transform="translate(0 -54.95)"/><path d="M230.43,303.89a.86.86,0,0,1-.59-.23.79.79,0,0,1,0-1.13.86.86,0,0,1,.59-.23.84.84,0,0,1,.59.23.76.76,0,0,1,0,1.13A.84.84,0,0,1,230.43,303.89Zm-.59,8.91v-7.64H231v7.64Z" transform="translate(0 -54.95)"/><path d="M236.36,313a3.51,3.51,0,0,1-1.9-.49,3.15,3.15,0,0,1-1.23-1.37,4.63,4.63,0,0,1-.43-2.06,4.7,4.7,0,0,1,.43-2.07,3.36,3.36,0,0,1,1.2-1.4,3.22,3.22,0,0,1,1.81-.51,3.7,3.7,0,0,1,1.18.2,3.1,3.1,0,0,1,1.06.65,3.21,3.21,0,0,1,.76,1.17,5,5,0,0,1,.28,1.8v.5h-5.89v-1h4.7a2.54,2.54,0,0,0-.26-1.16,1.94,1.94,0,0,0-.73-.8,2.07,2.07,0,0,0-1.1-.29,2.1,2.1,0,0,0-1.21.34,2.37,2.37,0,0,0-.79.9,2.65,2.65,0,0,0-.27,1.18v.68a3.19,3.19,0,0,0,.3,1.46,2.07,2.07,0,0,0,.84.91,2.42,2.42,0,0,0,1.25.32,2.47,2.47,0,0,0,.84-.14,1.67,1.67,0,0,0,.64-.39,1.72,1.72,0,0,0,.43-.67l1.13.32a2.54,2.54,0,0,1-.6,1,2.85,2.85,0,0,1-1.05.68A3.79,3.79,0,0,1,236.36,313Z" transform="translate(0 -54.95)"/><path d="M242.48,308.21v4.59h-1.17v-7.64h1.13v1.2h.1a2.19,2.19,0,0,1,.82-.94,2.5,2.5,0,0,1,1.41-.36,2.82,2.82,0,0,1,1.36.32,2.18,2.18,0,0,1,.9.95,3.54,3.54,0,0,1,.32,1.62v4.85h-1.17V308a2,2,0,0,0-.47-1.41,1.66,1.66,0,0,0-1.28-.5,2.05,2.05,0,0,0-1,.24,1.75,1.75,0,0,0-.69.71A2.34,2.34,0,0,0,242.48,308.21Z" transform="translate(0 -54.95)"/><path d="M252.82,305.16v1h-3.95v-1Zm-2.8-1.83h1.17v7.28a1.5,1.5,0,0,0,.15.75.69.69,0,0,0,.38.32,1.3,1.3,0,0,0,.49.09,1.45,1.45,0,0,0,.32,0l.19,0,.24,1.05-.33.09a2.61,2.61,0,0,1-.54,0,2.35,2.35,0,0,1-1-.21,1.94,1.94,0,0,1-.79-.66,1.81,1.81,0,0,1-.31-1.1Z" transform="translate(0 -54.95)"/><path d="M257.72,313a3.57,3.57,0,0,1-1.91-.49,3.19,3.19,0,0,1-1.22-1.37,4.63,4.63,0,0,1-.43-2.06,4.7,4.7,0,0,1,.43-2.07,3.29,3.29,0,0,1,1.2-1.4,3.2,3.2,0,0,1,1.81-.51,3.64,3.64,0,0,1,1.17.2,2.92,2.92,0,0,1,1.06.65,3,3,0,0,1,.76,1.17,5,5,0,0,1,.29,1.8v.5H255v-1h4.69a2.54,2.54,0,0,0-.25-1.16,1.94,1.94,0,0,0-.73-.8,2.07,2.07,0,0,0-1.1-.29,2.1,2.1,0,0,0-1.21.34,2.37,2.37,0,0,0-.79.9,2.65,2.65,0,0,0-.27,1.18v.68a3.19,3.19,0,0,0,.3,1.46,2.07,2.07,0,0,0,.84.91,2.42,2.42,0,0,0,1.25.32,2.45,2.45,0,0,0,.83-.14,1.66,1.66,0,0,0,1.07-1.06l1.14.32a2.54,2.54,0,0,1-.6,1,2.85,2.85,0,0,1-1.05.68A3.82,3.82,0,0,1,257.72,313Z" transform="translate(0 -54.95)"/><path d="M262.45,312.8v-.89l4.33-5.57v-.08h-4.19v-1.1h5.71v.94l-4.22,5.53v.08h4.35v1.09Z" transform="translate(0 -54.95)"/></g></svg>